<?xml version="1.0" encoding="UTF-8"?>
<svg id="Layer_2" data-name="Layer 2" xmlns="http://www.w3.org/2000/svg" xmlns:xlink="http://www.w3.org/1999/xlink" viewBox="0 0 1800 2880">
  <defs>
    <style>
      .cls-1 {
        fill: #8e26a8;
      }

      .cls-2 {
        fill: #6e775b;
      }

      .cls-3 {
        opacity: .21;
      }

      .cls-3, .cls-4, .cls-5, .cls-6 {
        fill: #120735;
      }

      .cls-7 {
        fill: #fff;
      }

      .cls-8 {
        fill: #aecef4;
      }

      .cls-9 {
        fill: #e89838;
      }

      .cls-10 {
        clip-path: url(#clippath-2);
      }

      .cls-11 {
        fill: #d6e2c0;
      }

      .cls-12 {
        fill: #623789;
      }

      .cls-13 {
        fill: #d63b2b;
      }

      .cls-14 {
        fill: #532479;
      }

      .cls-15 {
        fill: #d03d9c;
      }

      .cls-16 {
        fill: #251556;
        opacity: .33;
      }

      .cls-17 {
        clip-path: url(#clippath-1);
      }

      .cls-18 {
        fill: #e27c37;
      }

      .cls-19 {
        fill: #461f76;
      }

      .cls-5 {
        opacity: .23;
      }

      .cls-20 {
        fill: #7e4096;
      }

      .cls-21 {
        fill: #241151;
      }

      .cls-6 {
        opacity: .18;
      }

      .cls-22 {
        fill: #321667;
      }

      .cls-23 {
        clip-path: url(#clippath);
      }

      .cls-24 {
        fill: #527fbf;
      }

      .cls-25 {
        fill: #efc245;
      }

      .cls-26 {
        fill: #1f3b63;
      }

      .cls-27 {
        fill: none;
      }

      .cls-28 {
        fill: #f24444;
      }

      .cls-29 {
        fill: #cea5f9;
        opacity: .12;
      }

      .cls-30 {
        fill: #fc883a;
      }
    </style>
    <clipPath id="clippath">
      <rect class="cls-27" x="-540" y="540" width="2880" height="1800" transform="translate(2340 540) rotate(90)"/>
    </clipPath>
    <clipPath id="clippath-1">
      <circle class="cls-15" cx="1123.54" cy="1926.48" r="362.94"/>
    </clipPath>
    <clipPath id="clippath-2">
      <circle class="cls-13" cx="492" cy="2402.02" r="168.8" transform="translate(-1554.38 1051.43) rotate(-45)"/>
    </clipPath>
  </defs>
  <g id="Layer_1-2" data-name="Layer 1">
    <g class="cls-23">
      <g>
        <rect class="cls-4" x="-540" y="540" width="2880" height="1800" transform="translate(2340 540) rotate(90)"/>
        <path class="cls-21" d="M1932.62,1230.82c-30.99,41.32-45.34,91.03-78.31,131-30.27,36.69-61.32,67.93-87.83,108.56-22.95,35.18-49.69,69.04-67.7,106.86-22.37,46.99-28.66,98.2-55.07,143.95-60.51,104.83-146.81,146.23-250.75,197.28-72.5,35.61-112.06,84.67-173.04,128.6-55.8,40.2-162.02,46.96-228.71,45.12-60.78-1.67-133.91-23.07-180.27-62.98-56.59-48.71-100.56-71.88-176.97-84.24-105.24-17.03-217.59,10.57-321.52-21.38-105.4-32.4-172.54-136.15-227.64-226.1-56.55-92.32-122.43-166.13-164.63-267.05-20.74-49.6-47.3-94.61-69.6-143.22-31.86-69.43-29.89-134.19-40.43-207.92-8.43-58.94-14.59-121.37-28.06-179.23-13.03-55.98-42.64-105-54.53-161.61-15.1-71.92-17.12-133.33-24.47-204-4.53-43.56-27.25-81.21-34.66-124.41-12.45-72.58-1.81-142.13,25.55-209.12C-223.33-1.5-74.4-150.06,140.99-214.19c114.41-34.07,244.91-71.61,363.71-84.96,149.07-16.75,287.85,46.47,435.6,50.72,138.46,3.98,267.27-23.49,403.01-46.44,130.3-22.04,259.7-50.89,388.74-9.09,135.69,43.96,250.47,107.74,346.79,213.61,70.26,77.23,166.13,183.89,177.31,292.7,20.27,197.32-135.56,380.53-125.07,577.72,4.62,86.79,3.18,157.37-28.14,239.81-24.47,64.4-59.49,120.25-89.1,181.5"/>
        <path class="cls-22" d="M1830.13,487.85c1.37,67.67-12.4,150.24-45.26,209.23-44.15,79.26-114.23,136.77-167.29,208.25-46.59,62.75-38.31,136.48-63.09,207.55-28.44,81.56-92.4,122.28-167.9,158.09-69.14,32.79-147.04,65.01-222.03,81.37-60.17,13.13-105.88,13.87-162.73,41.26-65.24,31.44-126.63,59.01-200.25,58.58-70.92-.42-140.15-12.17-208.01-32.07-81.38-23.87-141.05-70.51-197.99-131.93-44.02-47.49-106.6-49.99-163.56-78.28-101.65-50.48-144.18-119.6-172.35-223.84-19.49-72.11-89.88-105.46-107.62-178.24-11.07-45.43,1.79-91.61-2.87-136.89-3.74-36.4-26.7-63.61-43.86-95.06-38.34-70.26-43.98-169.94-40.26-248.42,2.1-44.23-1.21-87.35-1.01-131.51,.31-67.98,27.4-117,60.65-175.13C-42.71-36.19-7.28-105.96,43.51-148.95c60.35-51.08,137.08-41.29,210.78-37.55,188,9.54,369.66-51.95,560.31-44.35,99.82,3.98,198.13,10.32,297.3,21.62,108.5,12.37,209.84-1.7,317.16-.41,76.97,.93,148.79,25.55,224.64,29.51,62.27,3.25,110.55-6.99,164.66,29.22,189.34,126.67,82.09,369.84,112.11,554.47"/>
        <path class="cls-19" d="M1850.22,550.96c-48.7,19.01-78.95,32.52-111.5,75.25-37.99,49.87-42.11,114.07-86.26,159.03-15.55,15.84-34.64,26.4-52.39,39.34-18.69,13.62-29.65,31.8-47.78,45.41-35.96,26.99-79.01,36.8-108.11,74.78-60.2,78.56-162.45,153.76-266.48,153.38-105.72-.38-203.51-21.68-307.02-34-56-6.67-93.3,10.33-132.33,48.98-42.72,42.3-101.41,74.98-162.89,79.65-66.68,5.07-135.08-8.68-177.74-63.06-19.23-24.51-38.78-52.18-48.12-81.97-12.77-40.71-11.42-80.27-35.18-118.15-21.96-34.99-56.93-52.06-88.09-77.52-33.62-27.46-59.35-62.45-80.4-100.68-40.84-74.22-14.2-154.11-72.8-222.38-30.18-35.16-74.5-54.63-104.42-89.91-38.15-44.99-48.25-101.06-46.52-158.6,1.72-57.25,18.47-112.62,21.26-170.36,2.39-49.49-16.22-101.46-10.21-149.32C-57.73-111.15,21.98-160.54,84.07-180.97c90.03-29.62,189.78-5.95,279.44,14.12,132.24,29.6,267.23,44.35,402.7,36.1,156.17-9.51,310.5-9.06,466.79-13.04,70.01-1.78,139.35-16.2,209.52-10.3,76.14,6.4,142.19,37.56,214.84,58.32,110.3,31.52,269.83-4.33,353.45,90.16,136.23,153.95-43.73,378.97-43.23,549.05"/>
        <path class="cls-14" d="M1860.88,575.3c-41.52,8.11-86.64,48.32-111.34,81.29-11.62,15.5-16.64,35.33-29.78,49.9-12.94,14.34-32.75,22.47-46.61,36.23-61.55,61.08-119.93,98.75-206.06,108.95-30.52,3.62-61.71,4.97-91.86,14.32-35.41,10.98-67.35,30.47-102.88,39.76-82.57,21.59-164.85-22.13-249.1-23.96-88.57-1.92-152.91,70.11-242.07,70.23-116.88,.15-246.03-55.98-325.63-142.24-48.93-53.02-70.52-119.96-132.24-158.03-63.27-39.03-115.44-77.7-148.57-144.8-23.12-46.83-24.88-93.34-49.06-139.53-23.58-45.05-24.59-94.41-46.88-140.8C48.43,163.4-11.97,113.99-16.74,40.84-21.28-28.62,2.5-88.24,56.13-132.99c86.32-72.02,265.09-40.95,293.77,75.68,12.73,51.75,40.01,95.46,55.85,145.91,18.94,60.3,64.61,95.95,109.92,139.15,50.82,48.47,82.01,85.1,155.64,97.57,63.91,10.83,130.79,2.55,194.92-4.43,58.9-6.41,106.53-39.9,158.04-67.1,52.99-27.98,82.35-68.56,121.86-112.19,23.03-25.43,194.94-235.76,217.69-109.51,2.25,12.49-5.47,47.53-8.3,60.01-8.28,36.55-33.58,78.67-58.03,106.42-29.88,33.9-50.54,77.99-87.81,104.53-37.52,26.72-83.43,45.42-124.1,66.83-68.59,36.11-143.82,49.19-218.76,66.07-81.05,18.25-175.18,19.74-252.91-14.35-55.66-24.41-119.02-64.44-178.96-76.76-64.01-13.16-61.81,37.18-25.14,75.68,28.08,29.48,60.2,58.01,92.17,82.96,41.52,32.39,79.34,35.39,128.17,47.79,83.98,21.33,184.6,47.65,267.51,15.59,47.69-18.44,98.93-23.36,145.45-45.79,63.57-30.65,123.98-66.68,189.71-93.26,51.97-21.02,98.85-39.72,143.18-76.25,15.42-12.7,14.84-16.7,24.39-30.58,16.81-24.45,36.02-44.28,54.99-67.75,26.06-32.25,18.9-67.55,41.38-100.61,19.81-29.15,48.26-53.55,65.36-84.93,9.65-17.71,12.72-37.77,21.35-55.97,31.22-65.81,101.32-105.13,172.25-102.56,78.64,2.85,131.98,86.27,145.41,160.26,6.77,37.31-16.81,62.48-20.94,98.87-3.19,28.09,6.5,53.89,9.56,81.43,5.81,52.28,21.64,129.95,5.99,181.1"/>
        <path class="cls-12" d="M1805.02,64.54c-59.42,48.85-82.46,133.61-126.57,194.69-50.52,69.97-108.83,102.43-177.34,149.79-58.05,40.13-116.09,89.45-181.58,116.41-58.82,24.21-109.25,49.98-166.16,78.53-56.18,28.18-103.13,61.82-166.27,77.99-34.68,8.88-66.83,2.61-101.65,5.44-34.49,2.81-63.99,11.58-99.79,8.02-65.22-6.49-134.99-9.31-194.8-38.42-22.83-11.11-102.06-51.4-101.4-84.07,.8-39.57,66.49-7.04,87.43,3.17,49.84,24.31,85.09,43.01,142.29,41.11,49.29-1.64,91.78-19.42,137.64-32.89,45.92-13.49,99.41-3.71,144.85-22.27,18.5-7.56,32.45-21.87,50.69-30.4,26.47-12.39,56.59-15.2,83.86-25.37,50.99-19.02,100.67-34.98,141.13-73.31,35.44-33.57,52.9-64.49,101.55-83.03,50.13-19.11,97.36-27.48,134.92-70.54,38.61-44.26,63.18-103.4,97.81-150.99,30.73-42.24,52.04-92.14,82.26-134.33,22.36-31.21,106.49-90.85,142.6-55.31,40.24,39.6-3.48,134.59-31.49,125.78Z"/>
        <path class="cls-12" d="M626.13-182.99c20.78,33.14,36.35,76.32,67.56,101.96,26.04,21.39,66.41,36.35,97.61,48.6,57.05,22.4,88.69,66.15,154.25,63.47,39.23-1.6,80.43-34.8,118.79-30.53,49.94,5.55,67.37,83.12,55.76,123.5-16.22,56.38-85.45,100.89-135.05,120.72-68.26,27.28-129.68,32.45-203.67,19.82-65.26-11.14-141.03,5.86-200.37-22.35-41.08-19.53-69.34-53.12-105.38-79.51-36.59-26.8-77.38-38.38-117.11-57.2-55.95-26.51-73.92-58.1-89.43-115.27-9.85-36.33-31.86-67.71-40.17-103.5-30.58-131.68,143.1-233.2,254.84-232.92"/>
        <path class="cls-12" d="M9.1,39.3c55.18,97.75,96.88,190.48,217.67,218.41,35.65,8.24,58.28,6.03,87.8,30.38,28.34,23.39,46.59,51.49,79.17,70.88,70.01,41.68,148.38,63.99,225.95,83.16,63.74,15.75,149.68,52.3,217,37.08,47.79-10.81,54.77-58.55,7.53-72.27-77.11-22.39-149.28-16.53-220.15-60.77-30.38-18.97-57.05-43.83-89.05-60.55-37.87-19.79-81.83-23.78-120.7-41.31-34.33-15.48-54.56-44.83-81.93-69.14-35.92-31.9-73.59-52.78-101.14-92.88C182.48,11.33,146.66-66.27,71.82-114.2-50.77-192.72-62.36-38.48,9.1,39.3Z"/>
        <path class="cls-20" d="M548.1,610.67c10.15,27.99,57.17,32.83,81.3,39.77,34,9.78,62.6,22.69,98.6,24.36,33.19,1.54,67.18-4.7,100.55-4.26,46.09,.61,89.53,5,134.37-9.27,17.5-5.57,35.51-9.68,53.08-14.79,15.65-4.55,46.24-9.81,56.76-22.87,25.5-31.68-47.94-13.63-59.58-10.22-40.68,11.91-75.41,13.84-116.87,16.42-21.8,1.36-42.18,7.96-63.95,10.36-32.47,3.58-67.31,1.01-99.87-1.44-44.03-3.32-86.94-21.35-129.51-32.82-8.96-2.41-73.51-32.63-54.89,4.75Z"/>
        <path class="cls-20" d="M1816.52-.53c-21.72,36.6-37.05,68.07-69.89,96.41-29.73,25.66-52.63,50.06-70.07,85.85-12.88,26.42-22.9,53.9-36.86,79.79-14.6,27.09-30.57,40.19-54.22,58.7-42.29,33.1-85.61,67.25-130.33,97.78-49.49,33.78-109.77,50.21-156.81,87.57-20.78,16.51-46.33,32.25-69.4,45.12-15.36,8.56-41.34,27.85-59.17,26.93-17.05-.88-22.1-10.07-12.59-23.69,10.27-14.72,36.2-21.77,51.99-29.99,41.22-21.45,69.42-51.23,103.96-81.37,43.76-38.18,105.08-55.21,152.3-89.44,32.01-23.2,70.31-34.99,100.69-60.81,32.42-27.55,48.2-68.6,61.44-108.1,15.56-46.4,46.37-92.43,70.16-135.43,17.61-31.83,67.16-120.99,113.91-84.19"/>
        <path class="cls-20" d="M-9.86-31.42C15.5-1.82,32.26,35.57,59.57,63.31c28.99,29.45,70.42,38.08,96.86,68.6,34.79,40.17,67.31,79.77,111.93,109.68,36.64,24.56,76.42,47.26,116.54,65.09,21.34,9.48,87.82,25.38,57.5-15.31-25.49-34.21-74.74-45.97-109.91-68.12C249.14,170.77,192.79,96.31,144.65,11.8c-19.06-33.46-43.93-37.4-74.23-59.19-8.31-5.98-20.25-15.88-30.86-16.73-12.99-1.03-37.95,10.83-49.42,32.69Z"/>
        <path class="cls-20" d="M493.53,348.3c15.45,18.93,49.32,30.34,70.29,43.45,32.91,20.58,68.3,34.6,105.44,45.05,25.18,7.08,51.74,12.69,76.47,21.4,18.75,6.6,55.11,28.34,72.26,7.63-8.89-26.05-35-26.92-58.49-28.04-35.57-1.71-65.85-23.18-96.92-38.65-27.03-13.46-57.46-15.31-81.96-32.2-20.5-14.13-35.73-29.75-60.79-36.32-13.16-3.45-33.58-8.25-26.29,17.67Z"/>
        <path class="cls-20" d="M393.67-22.12c12.55,12.47,16.58,28.49,25.06,43.52,10.83,19.21,25.55,36.64,40.38,52.88,37.37,40.95,85.03,58.39,136.86,73,70.14,19.77,135.66,50.97,207.61,64.27,27.81,5.14,146.1,12.52,121.38-44.25-17.29-39.69-66.74-.04-99.09-15.51-23.43-11.2-58.4-51.84-7.77-41.52,48.8,9.94,91.11,26.01,141.63,25.96,17.38-.02,36.91,6.24,53.93-.33,22.87-8.82,17.47-28.42-1.37-39.71-20.07-12.02-55.2-7.66-77.77-9.26-43.91-3.11-87.3-15.33-130.04-25.62-100.1-24.09-171.03-95.42-253.75-150.69-46.92-31.35-133.68-68.93-160.2,7.2"/>
        <path class="cls-12" d="M1150.98,841.16c100.49,37.82,184.13-23.03,273.09-60.56,28.96-12.21,111.05-40.29,108.77-82.76-1.71-31.8-43.91-24.78-63.76-19.65-58.86,15.22-101.43,64.28-162.02,79.01-43.75,10.63-91.35,10.52-133.78,24.74-24.31,8.15-64.86,30.52-22.3,59.21Z"/>
        <path class="cls-29" d="M1548.71-70.29c-28.9,80.17-42.78,180.64-117.96,232.7-24.08,16.67-50.48,18.98-69.48,42.36-20.61,25.36-24.17,61.32-39.5,89.41-33.18,60.81-125.8,89.57-191.37,94.79-32.46,2.59-68.58-2.43-100.1,6.9-28.83,8.53-52.44,30.79-77.53,46.11-83.66,51.07-180.86,28.76-251.5-34.64-31.64-28.4-62.38-67.85-100.56-87.9-27.75-14.57-59.02-16.16-85.37-35.35-70.53-51.37-75.88-175.34-39.75-248.53,15.55-31.48,45.49-45.12,62.46-74.35,21.18-36.48,19.72-93.93,24.95-134.82,9.15-71.58,33.64-127.12,99.81-163.44,73.63-40.42,139.13-12,217.16-17.85,58.72-4.4,117.1-26.31,173.15-42.83,142.73-42.07,247.27-29.37,364.76,68.5"/>
        <path class="cls-29" d="M1678.82-92.9c-35.77,99.22-52.95,223.57-145.99,288-29.8,20.64-62.48,23.49-85.99,52.43-25.5,31.39-29.92,75.89-48.89,110.66-41.07,75.26-155.69,110.85-236.84,117.32-40.18,3.2-84.88-3-123.88,8.54-35.69,10.56-64.9,38.1-95.96,57.06-103.54,63.21-223.83,35.59-311.26-42.87-39.16-35.14-77.21-83.97-124.46-108.78-34.35-18.03-73.04-20-105.65-43.75-87.3-63.58-93.92-217.01-49.19-307.59,19.24-38.97,56.3-55.85,77.3-92.02,26.21-45.15,24.41-116.25,30.88-166.86,11.33-88.58,41.63-157.32,123.53-202.28,91.13-50.03,172.19-14.85,268.76-22.09,72.67-5.45,144.93-32.56,214.29-53.01,176.64-52.07,306.02-36.35,451.43,84.78"/>
      </g>
      <g>
        <g>
          <circle class="cls-15" cx="1123.54" cy="1926.48" r="362.94"/>
          <g class="cls-17">
            <path class="cls-15" d="M1445.51,1708.98c-13.82-35.15-39.06-56.95-67.44-80.49-27.86-23.11-50.58-52.04-87.45-59.41-12.34-2.47-24.94-2.48-37.31-5.07-16.76-3.51-32.52-12.28-49.72-13.62-31.12-2.42-69.94,3.75-100.57,9.05-37.73,6.53-78.82,10.16-113.92,25.98-38.08,17.16-76.28,41.42-107.1,69.61-62.57,57.21-120.34,129.47-154.93,207.25-13.68,30.75-28.03,63.88-28.06,98.18-.03,40.43,8.85,86.61,22.91,124.12,16.56,44.19,29.43,95.03,56.33,134.34,13.33,19.48,30.64,43.42,49.28,58.24,15.32,12.19,36,17.84,53.34,26.58,17.16,8.65,34.21,18.09,52.5,24.17,21.59,7.18,44.81,6.53,67.2,9.44,51.77,6.74,109.94,5.41,161.68,.29,51.1-5.06,111.12-19.68,158.07-40.63,47.32-21.11,99.37-54.75,125.57-100.09,23.57-40.77,31.33-84.58,47.99-127.9,16.01-41.62,25.87-86.03,23.63-130.87-2.71-54.35-22.62-106.24-33.69-158.93-5.53-26.31-17.24-52.21-30.07-75.77-11.47-21.07-28.83-34.85-41.28-54.42"/>
            <path class="cls-1" d="M1145.54,1521.49c-9.42,42.61-24.44,81.49-27.88,125.5-3.02,38.71-5.65,75.75-12.92,113.86-5.27,27.64,10.19,73.97-9.97,96.8-16.17,18.3-48.73,9.45-65.56-3.4-25.8-19.71-24.49-52.67-18.94-81.49,6.14-31.9,9.19-54.51-.21-86.21-9.12-30.72-16.91-58.99-8.69-90.39,5.56-21.25,14.76-38.47,27.33-56.31,13.17-18.71,30.2-30.44,44.91-47.18"/>
            <path class="cls-1" d="M1052.92,2308.8c-8.05-30.7-11.02-61.87-18.34-92.82-4.17-17.61-7.68-34.23-15.82-50.45-8.92-17.77-18.14-32.47-22.42-52.16-6.08-27.92,.36-52.9-11.87-80.47-6.23-14.05-15-27.21-17.43-42.76-2.04-13.06,1.75-25.79,2.83-39.16,2.1-26.07-3.43-56.43-17.53-78.87-13.35-21.25-20.28-14.61-32.73,1.47-12.51,16.17-20.2,35.96-32.38,52.06-6.64,8.78-17.2,13.02-23.25,22.54-9.98,15.69-8.16,34.15-6.66,51.62,1.66,19.24,2.18,36.61-3.51,55.26-6.08,19.91-19.6,35.78-23.58,56.78-4.01,21.19-2.52,41.44,5.38,61.53,11.78,29.94,22.15,64.99,38.83,92.4"/>
            <path class="cls-1" d="M949.82,1813.47c4.11-15.54,18.15-36.29,15.08-52.03-2.08-10.66-12.88-28.13-19.88-37.3-24.15-31.67-50.49,13.3-43.78,38.74,2.9,11,9.26,21.02,12.27,31.8,2.16,7.73,.97,16.86,6.45,23.46,10.68,12.88,17.38,3.53,29.86-4.69Z"/>
            <path class="cls-1" d="M1451.38,2142.53c-5.32-53.27-21.71-92.74-68.21-124.55-30.95-21.18-62.23-36.56-89.17-63.11-12.79-12.6-25.29-25.42-40.48-35.31-16.01-10.42-35.03-15.76-50.24-27.47-22.24-17.12-57.79-67-77.46-20.12-19.72,47,21.44,68.88,38.29,108.28,16.14,37.74,6.75,93.99,5.16,133.75-.71,17.9,3.99,36.28,6.49,54.22,3.01,21.65,9.31,46.32,19.55,65.75,9.51,18.04,29.41,29.48,45.11,42.14,10.36,8.35,22.73,16.35,33.81,23.7,44.19,29.28,89.2-6.7,126.51-28.91,23.89-14.22,38.43-32.12,48.61-58.64,8.4-21.89,26.34-69.3,18.06-92.03"/>
            <path class="cls-1" d="M1487.88,2057.88c14.72-44.45-40.32-105.9-75.42-123.93-42.15-21.65-91.49-29.47-119.93-70.62-27.56-39.88-18.74-86.06-2.42-128.33,15.94-41.3,47.29-54.46,83.31-76.92,17.79-11.09,23.58-22.98,32.66-41.32,4.23-8.54,9.46-22.67,21.53-16.53,19.6,9.98,8.52,90.68,.99,105.63-12.06,23.94-47.57,24.9-57.44,51.6-9.91,26.83,.54,61.77,29.26,69.25,33.87,8.82,75.05-20.04,104.7-1.18,39.7,25.25,26.74,112.15,16.15,148.38"/>
            <path class="cls-1" d="M1249.56,1551.23c3.69,9.41-2.85,36.48-4.92,49.03-4.1,24.85-7.19,50.94-13.81,75.24-7.83,28.77-38.43,58.12-58.38,20.49-7.14-13.46-4.51-25.4-2.44-39.94,2.52-17.66,1.75-34.22-.9-51.94-2.95-19.7-10.87-40.2-10.83-60.1,.04-21.15,12.32-40.77,12.04-61.68"/>
            <path class="cls-1" d="M1224.28,1803.35c4.54-16.19,7.65-85.11-21.22-83.31-23.4,1.46-18.23,48.25-13.15,61.3,4.57,11.75,5.21,24.89,17.41,30.83,13.16,6.41,12.05,.51,16.97-8.82Z"/>
            <path class="cls-1" d="M1123.56,2325.52c-1.19-10.95-5.55-21.13-6.5-32.1-1.4-16.19,1.33-32.8-.44-49.04-1.87-17.15-4.56-37.01-8.59-53.68-3.59-14.84-14.41-47.86-27.57-57.24-31.68-22.57-8.63,73.68-7.24,85.11,4.78,39.32,2.6,79.21,9.18,118.39"/>
            <path class="cls-1" d="M752.23,2078.5c15.94,5.64,21.68-33.3,25.9-43.98,4.98-12.61,8.92-24.54,16.09-36.32,9.39-15.44,23.25-25.53,33.6-40.17,17.89-25.3,32.09-62.56,36.71-93.19,2-13.31,.86-28.36-1.85-41.51-3.09-14.94-13.5-27.74-16-42.36-2.85-16.69,5.84-29.66-2.19-46.07-6.55-13.39-24.41-26.51-39.31-21.63-20.77,6.8-24.11,35.76-21.62,53.75,2.12,15.34,11.7,23.41,19.1,36.45,7.47,13.17,9.22,25.79,8.81,40.8-.87,31.6-26.14,45.77-45.58,68.46-11.77,13.74-15.42,26.64-22.94,42.54-8.4,17.77-18,30.19-13.32,51.27"/>
            <path class="cls-16" d="M1520.96,1997.23c-98.9-190.94-340.15-252.19-537.85-195.69-93.43,26.7-147.04,99.2-195,177.64-91.01,148.86-37.63,390.04,135.45,455.78,79.79,30.31,178.86,59.49,264.22,53.07,72.53-5.46,159.93-32.45,225.37-64.46,49.68-24.3,97.92-66.44,127.64-113.09,30.73-48.25,38.91-109.06,44.8-164.97"/>
          </g>
        </g>
        <g>
          <path class="cls-11" d="M1422.64,1475.59c-2.75-13.14-8.46-31.95-6.1-45.13,2.14-11.91,12.15-21.87,14.4-33.36,.25-1.2,.39-2.4,.44-3.64,.99-25.47-11.61-50-18.86-73.88-7.56-24.95-13.93-50.25-19.07-75.82-3.66-18.23-6.7-36.56-9.13-54.98-.34-2.65-.67-5.31-1-7.97-1.15-9.55-3.05-19.64-2.25-29.19,.41-4.87,.78-16.02,4.6-19.86,.11-.1,.21-.2,.32-.29,5.02-4.34,10.59,1.81,15.39,5.2,13.97,9.89,26.19,21.49,36.86,34.34,39.77,47.82,58.26,113.09,67.1,173.31,1.99,13.51,5.08,26.88,12.59,36.37,1.09,1.36,2.25,2.65,3.52,3.84,5.5,5.15,13.83,4.86,18.16,11.57,3.51,5.41,6.36,17.58,7.11,23.23-1.08-8.12-68.06,9.66-73.69,11.63-12.02,4.23-25.26,10.22-34.41,19.39-2.5,2.5-7.48,7.66-11.24,12.99-3.14,4.44-5.43,9-4.76,12.26Z"/>
          <g>
            <path class="cls-2" d="M1430.35,1207.01c-6.59,.43-12.21-3.57-12.55-8.93-.35-5.36,4.71-10.05,11.3-10.47,6.59-.43,12.21,3.57,12.55,8.93,.35,5.36-4.71,10.05-11.3,10.47Z"/>
            <path class="cls-24" d="M1431.09,1207.7c-6.59,.43-12.21-3.57-12.55-8.93-.35-5.36,4.71-10.05,11.3-10.47,6.59-.43,12.21,3.57,12.55,8.93,.35,5.36-4.71,10.05-11.3,10.47Z"/>
            <path class="cls-26" d="M1430.86,1204.15c-4.18,.27-7.75-2.27-7.97-5.67-.22-3.4,2.99-6.38,7.17-6.65,4.18-.27,7.75,2.27,7.97,5.67,.22,3.4-2.99,6.38-7.17,6.65Z"/>
            <path class="cls-8" d="M1431.6,1202.32c-1.85,.12-3.41-.76-3.49-1.97-.08-1.21,1.36-2.29,3.21-2.41,1.85-.12,3.41,.76,3.49,1.97s-1.36,2.29-3.21,2.41Z"/>
          </g>
          <g>
            <path class="cls-2" d="M1435.25,1233.58c-6.59,.43-12.21-3.57-12.55-8.93-.35-5.36,4.71-10.05,11.3-10.47,6.59-.43,12.21,3.57,12.55,8.93,.35,5.36-4.71,10.05-11.3,10.47Z"/>
            <path class="cls-24" d="M1435.99,1234.26c-6.59,.43-12.21-3.57-12.55-8.93-.35-5.36,4.71-10.05,11.3-10.47,6.59-.43,12.21,3.57,12.55,8.93,.35,5.36-4.71,10.05-11.3,10.47Z"/>
            <path class="cls-26" d="M1435.76,1230.72c-4.18,.27-7.75-2.27-7.97-5.67-.22-3.4,2.99-6.38,7.17-6.65,4.18-.27,7.75,2.27,7.97,5.67,.22,3.4-2.99,6.38-7.17,6.65Z"/>
            <path class="cls-8" d="M1436.5,1228.88c-1.85,.12-3.41-.76-3.49-1.97-.08-1.21,1.36-2.29,3.21-2.41,1.85-.12,3.41,.76,3.49,1.97s-1.36,2.29-3.21,2.41Z"/>
          </g>
          <g>
            <path class="cls-2" d="M1439.37,1260.17c-6.59,.43-12.21-3.57-12.55-8.93-.35-5.36,4.71-10.05,11.3-10.47,6.59-.43,12.21,3.57,12.55,8.93,.35,5.36-4.71,10.05-11.3,10.47Z"/>
            <path class="cls-24" d="M1440.11,1260.86c-6.59,.43-12.21-3.57-12.55-8.93-.35-5.36,4.71-10.05,11.3-10.47,6.59-.43,12.21,3.57,12.55,8.93,.35,5.36-4.71,10.05-11.3,10.47Z"/>
            <path class="cls-26" d="M1439.88,1257.32c-4.18,.27-7.75-2.27-7.97-5.67-.22-3.4,2.99-6.38,7.17-6.65s7.75,2.27,7.97,5.67c.22,3.4-2.99,6.38-7.17,6.65Z"/>
            <path class="cls-8" d="M1440.62,1255.48c-1.85,.12-3.41-.76-3.49-1.97s1.36-2.29,3.21-2.41c1.85-.12,3.41,.76,3.49,1.97,.08,1.21-1.36,2.29-3.21,2.41Z"/>
          </g>
          <g>
            <path class="cls-2" d="M1453.54,1325.85c-6.59,.43-12.21-3.57-12.55-8.93-.35-5.36,4.71-10.05,11.3-10.47,6.59-.43,12.21,3.57,12.55,8.93,.35,5.36-4.71,10.05-11.3,10.47Z"/>
            <path class="cls-24" d="M1454.28,1326.53c-6.59,.43-12.21-3.57-12.55-8.93-.35-5.36,4.71-10.05,11.3-10.47,6.59-.43,12.21,3.57,12.55,8.93,.35,5.36-4.71,10.05-11.3,10.47Z"/>
            <path class="cls-26" d="M1454.05,1322.99c-4.18,.27-7.75-2.27-7.97-5.67-.22-3.4,2.99-6.38,7.17-6.65,4.18-.27,7.75,2.27,7.97,5.67,.22,3.4-2.99,6.38-7.17,6.65Z"/>
            <path class="cls-8" d="M1454.78,1321.15c-1.85,.12-3.41-.76-3.49-1.97-.08-1.21,1.36-2.29,3.21-2.41,1.85-.12,3.41,.76,3.49,1.97s-1.36,2.29-3.21,2.41Z"/>
          </g>
          <g>
            <path class="cls-2" d="M1459.88,1353.4c-6.59,.43-12.21-3.57-12.55-8.93-.35-5.36,4.71-10.05,11.3-10.47,6.59-.43,12.21,3.57,12.55,8.93,.35,5.36-4.71,10.05-11.3,10.47Z"/>
            <path class="cls-24" d="M1460.62,1354.09c-6.59,.43-12.21-3.57-12.55-8.93-.35-5.36,4.71-10.05,11.3-10.47s12.21,3.57,12.55,8.93c.35,5.36-4.71,10.05-11.3,10.47Z"/>
            <path class="cls-26" d="M1460.39,1350.55c-4.18,.27-7.75-2.27-7.97-5.67-.22-3.4,2.99-6.38,7.17-6.65s7.75,2.27,7.97,5.67c.22,3.4-2.99,6.38-7.17,6.65Z"/>
            <path class="cls-8" d="M1461.13,1348.71c-1.85,.12-3.41-.76-3.49-1.97-.08-1.21,1.36-2.29,3.21-2.41s3.41,.76,3.49,1.97c.08,1.21-1.36,2.29-3.21,2.41Z"/>
          </g>
          <path class="cls-28" d="M1384.32,1188.78c-.34-2.65-.67-5.31-1-7.97-1.15-9.55-3.05-19.64-2.25-29.19,.42-5,.81-16.62,4.92-20.16,5.02-4.34,10.59,1.81,15.39,5.2,13.97,9.89,26.19,21.49,36.86,34.34-7.84,8.93-26.35,14.53-34.13,15.98-5.96,1.11-12.92,1.99-19.8,1.8Z"/>
          <path class="cls-28" d="M1422.64,1475.59c-2.75-13.14-8.46-31.95-6.1-45.13,2.14-11.91,12.15-21.87,14.4-33.36,8.08,2.39,16.59,3.77,26.05,3.66,20.95-.28,46.29-3.74,60.95-20.07,1.09,1.36,2.25,2.65,3.52,3.84,5.5,5.15,13.83,4.86,18.16,11.57,3.51,5.41,6.36,17.58,7.11,23.23-1.08-8.12-68.06,9.66-73.69,11.63-12.02,4.23-25.26,10.22-34.41,19.39-4.58,4.58-17.49,18.07-16,25.25Z"/>
          <path class="cls-25" d="M1535.98,1599.28c-.67-7.71-1.21-15.44-1.88-23.15-1.24-14.37-3.79-28.95-6.43-43.13-3.95-21.25-7.15-43.75-13.91-64.27-4.68-14.21-17.11-36.42-34.97-29.98-6.46,2.33-10.63,5.91-12.08,12.98-1.53,7.44,.28,15.83,1.23,23.21,1.4,10.88,4.49,22.16,7.77,32.62,10.49,33.43,27.47,64.73,40.95,96.92,4.42,10.57,9.23,21.15,12.64,32.1,2.24,7.19,6.07,13.87,7.8,21.23,3.16-2.74-1.93-16.87-3.01-21.06-1.91-7.42-4.99-15.25-4.06-23,6.56-.09,4.57,16.55,9.48,19.09,.96-6.51-1.5-13.78-2.24-20.3-.5-4.41-.92-8.84-1.31-13.26Z"/>
          <path class="cls-18" d="M1519.09,1548.46c-.46-5.29-.83-10.58-1.29-15.87-.85-9.85-2.6-19.85-4.4-29.56-2.71-14.57-4.9-29.99-9.54-44.05-3.21-9.74-11.72-24.96-23.97-20.55-4.43,1.6-7.28,4.05-8.28,8.9-1.05,5.1,.19,10.85,.84,15.91,.96,7.46,3.08,15.19,5.33,22.36,7.19,22.91,18.83,44.36,28.07,66.43,3.03,7.24,6.33,14.49,8.66,22,1.54,4.93,4.16,9.51,5.35,14.55,2.17-1.88-1.32-11.56-2.06-14.43-1.31-5.08-3.42-10.45-2.78-15.76,4.5-.06,3.13,11.35,6.5,13.08,.66-4.46-1.03-9.44-1.54-13.91-.35-3.03-.63-6.06-.89-9.09Z"/>
          <path class="cls-13" d="M1509.64,1518.84c-.33-3.81-.6-7.62-.93-11.43-.61-7.1-1.87-14.3-3.17-21.3-1.95-10.5-3.53-21.6-6.87-31.74-2.31-7.01-8.45-17.98-17.27-14.8-3.19,1.15-5.25,2.92-5.96,6.41-.75,3.67,.14,7.82,.61,11.46,.69,5.38,2.22,10.94,3.84,16.11,5.18,16.51,13.57,31.96,20.22,47.86,2.18,5.22,4.56,10.44,6.24,15.85,1.11,3.55,3,6.85,3.85,10.48,1.56-1.35-.95-8.33-1.48-10.4-.94-3.66-2.47-7.53-2-11.36,3.24-.04,2.26,8.17,4.68,9.43,.47-3.21-.74-6.8-1.11-10.02-.25-2.18-.46-4.36-.64-6.55Z"/>
          <path class="cls-6" d="M1422.64,1475.59c-2.75-13.14-8.46-31.95-6.1-45.13,2.14-11.91,12.15-21.87,14.4-33.36,.25-1.2,.39-2.4,.44-3.64,.99-25.47-11.61-50-18.86-73.88-7.56-24.95-13.93-50.25-19.07-75.82-3.66-18.23-6.7-36.56-9.13-54.98-.34-2.65-.67-5.31-1-7.97-1.15-9.55-3.05-19.64-2.25-29.19,.41-4.87,.78-16.02,4.6-19.86,.03,8.27,.08,16.52,1.72,24.84,3.06,15.46,7.2,30.8,11.12,46.06,6.79,26.43,12.41,53.39,20.55,79.44,6.63,21.24,11.88,42.94,18.52,64.17,3.82,12.28,9.45,23.96,13.57,36.1,2.18,6.41,4.67,16.56,11.24,19.96,5.44,2.81,13.32,2.39,19.22,2.32,3.51-.04,23.64-1.94,25.13,2.48,1.3,3.88-46.93,13.22-51.67,15.58-14.93,7.42-22.16,24.51-27.7,40.64-3.14,4.44-5.43,9-4.76,12.26Z"/>
        </g>
        <g>
          <circle class="cls-13" cx="492" cy="2402.02" r="168.8" transform="translate(-1554.38 1051.43) rotate(-45)"/>
          <g class="cls-10">
            <circle class="cls-13" cx="500.73" cy="2402.02" r="177.53"/>
            <path class="cls-9" d="M562.21,2235.53c-2.86,8.07-13.2,14.92-18.59,21.83-12.37,15.88-15.15,32.54-14.04,52.36,.72,12.77,4.31,26.95,1.06,39.62-4.5,17.54-7.34,27-1.2,45.87,10.79,33.12,20.39,65.3,29.14,99.12,5.11,19.74,12.22,42.16,34.93,45.22,16.89,2.27,14.95-11.41,7.58-23.01-13.65-21.5-16.1-38.5-15.83-64.24,.28-25.94-18.1-45.25-20.27-70.96-1.05-12.44-5.55-25.94-4.57-38.31,.81-10.19,4.19-16.23,2.86-25.36-2.53-17.38-.11-39.07,3.16-56.35,2.13-11.23,7.61-20.34,20.18-18.8-.14,10.59-4.06,22.18-4.69,33.11-.79,13.83,1.84,27.49,2.92,41.47,2.79,36.17,13.08,72.3,13.22,109.11,.08,20.55,.63,48.06,16.1,63.23,6.66,6.53,23.38,30.17,32.83,14.58,5.01-8.27-3.33-16.42-5.82-24.09-3.22-9.93-3.3-19.64-6.77-29.51-6.52-18.56-10.25-38.34-12.49-57.72-2.66-23.06-15.85-51.64-5.55-74.82,6.48-14.57,16.18-9.76,27.64-12.16,.31,22.59-17.85,38.87-13.56,63.43,1.95,11.17,7.88,24.7,11.27,35.78,3.53,11.51,11.84,23.65,23.6,27.27,18.37,5.65,22.33-.86,19.83-17.15-4.58-29.75-9.56-59.51-14.58-89.18-4.92-29.12-7.06-62.03-24.2-87.17-13.54-19.87-44.4-49.13-69.69-49.87"/>
            <path class="cls-9" d="M521.51,2212.07c-17.9,16.17-23.81,30.09-21.92,54.32,1.29,16.57,5.15,33.09,2.47,49.78-2.28,14.19-7.9,26.1-5.72,40.83,2.52,17.06,8.36,31.37,9.31,48.64,1.53,27.9,12.32,72.4,28.4,96.05,4.42,6.5,12.3,10.57,17.61,16.7,4.98,5.75,6.62,12.3,11.52,18.22,5.43,6.55,17.9,10.43,18.13,20.88,.06,2.85-5.13,12.37-7.52,13.6-6.08,3.13-14.06,.66-19.05-3.9-4.31-3.94-5.11-10.34-8.01-15.18-4.73-7.89-10.91-12.62-18.06-18.11-21.42-16.45-34.46-46.89-40.41-73.38-5.12-22.8-5.79-45.9-13.63-68.11-8.93-25.31-6.45-42.97-3.83-69.23,3.28-32.89-7.21-65.43,4.07-98.06,2.79-8.07,8.82-21.35,15.6-26.6,7.7-5.96,19.48-1.49,25.3-7.86"/>
            <path class="cls-9" d="M460.15,2198.1c-9.1,18.7-25.89,28.64-31.58,49.62-5.59,20.61-9.18,43.45-5.89,64.54,3.04,19.49-3.74,37.15,.83,56.07,4.1,16.98,2.68,32.91,9.49,49.14,19.04,45.32,39.5,100.57,77.99,133.04,6.34,5.35,30.11,18.87,17.02,26.72-8.22,4.93-30.24-4.23-37.07-8.38-11.98-7.29-20.68-21.31-32.73-30.27-14.17-10.54-18.78-27.01-30.55-39.62-16.44-17.61-17.65-34.94-25.78-56.33-4.2-11.06-9.46-20.41-10.73-32.33-1.3-12.25,2.05-23.84,2.02-35.99-.04-13.57-4.12-26.08-2.85-39.7,1.13-12.07,5.51-22.34,8.12-33.93,3.14-13.92,2.3-28.82,6.06-42.55,3.31-12.11,10.69-18.34,16.73-28.55,5.86-9.91,17.94-31.16,38.91-31.48Z"/>
            <path class="cls-9" d="M457.82,2263.38c-5.26,28.89-5.7,62.32-5.81,91.48-21.27-6.98-10.68-30.85-10.94-46.05-.2-11.83-5.87-21.17-3.06-33.41,1.47-6.4,3.02-17.02,9.26-20.06,12.23-5.94,9.49,6.45,10.55,8.04Z"/>
            <path class="cls-9" d="M454.71,2579.97c10.36-15.53-.21-31.96-8.41-45.77-6.25-10.53-10.93-23.28-18.17-32.91-6.36-8.46-15.7-12.88-22.52-21.07-8.73-10.49-15.1-23.88-22.79-35.2-11.29-16.61-19.51-35.85-18.89-56.43,.27-9.06,8.65-30.1-6.63-31.14-7.49,13.74-1.8,37.71-.37,52.65,2.7,28.07,6.49,57.03,16.65,83.28,4.94,12.76,8.52,26.5,15.92,38.15,5.57,8.76,13.66,13.78,20.16,21.07,9.84,11.04,13.32,24.83,22.01,36.56"/>
            <path class="cls-9" d="M347.3,2536.99c-5.55-38.09-13.04-79.46-9.13-117.77,3.42-33.45-8.03-67.75-2.9-100.72,2.53-16.3,14.42-13.64,25.07-21.79,7.5-5.73,11.25-18.49,13.11-28.41,2.65-14.14-5.88-23.78-20.59-21.9-31.13,3.98-21.7,54.5-30.14,75.59-12.1,30.23-27.85,58-31.19,91.25-2.2,21.88,2.75,43.15,9.95,63.78,9.04,25.9,16.51,59.89,37.24,79.5"/>
            <path class="cls-9" d="M380.11,2348.11c1.52-11.77,9.06-37.86,.17-48.12-7.71-8.9-10.06,2.23-12.13,11.08-2.82,12.05-4.26,32.16,11.96,37.04Z"/>
            <path class="cls-3" d="M680.36,2390.95c-32.35-48.67-78.98-54.04-132.85-61.22-58.84-7.84-130.17,15.84-171.76,59.34-40.94,42.82-65.96,112.95-55.01,171.54,6.4,34.24,15.09,54.89,47.13,71.71,33.01,17.33,77.49,29.86,114.62,31.26,53.16,2,114.07-28.27,152.82-62.05,18.61-16.22,41.54-28.35,54.98-49.64,18.56-29.39,18.69-64.9,31.92-96.21"/>
          </g>
        </g>
        <g>
          <path class="cls-30" d="M1595.75,2591.84c-21.22-13.2-55.47-11.53-44.08-48.48,2.83-9.18,7.72-14.55,12.26-20.75,2.37-3.21,4.65-6.65,6.5-10.95,5.83-13.56,12.73-29.93,30.9-29.07,13.66,.64,19.87,14.51,29.75,21.56,9.78,6.97,24.4,13.07,19.61,28.66,.56,1.58,1.07,3.29,1.52,5.11,4.28,16.97,4.18,43.04-1.57,51.95-15.05,23.33-36.65,13.31-54.89,1.97Z"/>
          <path class="cls-5" d="M1595.75,2591.84c-21.22-13.2-55.47-11.53-44.08-48.48,2.83-9.18,7.72-14.55,12.26-20.75,2.38,3.67,5.08,7.14,7.89,10.49,6.85,8.18,17.03,15.97,28.24,14.88,8.51-.83,15.05-7.09,22.98-8.1,6.82-.87,12.12,4.44,19.35,2.38,3.31-.95,6.87-2.29,9.82-4.34,4.28,16.97,4.18,43.04-1.57,51.95-15.05,23.33-36.65,13.31-54.89,1.97Z"/>
          <path class="cls-4" d="M1638.65,2550.79c4.17-4.5,.99-17.32-1.42-22.43-1.92-4.06-8.94-17.22-13.7-8.8-2.19,3.87,.62,6.86,1.76,10.5,1.2,3.83,1.08,7.44,.89,11.37-.23,4.79,.78,13.19,6.33,14.71,3.02,.82,7.31-1.58,6.14-5.35Z"/>
          <path class="cls-4" d="M1600.66,2507.65c-2.93-2.39-11.6-1.92-14.49-.87-2.84,1.03-5.5,2.89-6.85,5.6s-1.1,6.31,1.07,8.4c1.08,1.04,2.52,1.64,3.97,2.04,1.93,.53,3.98,.74,5.93,.31s3.79-1.59,4.79-3.32c.53-.92,.82-1.98,1.35-2.9,.78-1.34,2.05-2.32,3.11-3.46,2.61-2.79,2.54-4.63,1.11-5.79Z"/>
          <path class="cls-4" d="M1603.08,2557.69c1.56-1.72,2.39-4.12,2.57-6.48,.24-3.26-.64-6.63-2.63-9.21-4.96-6.42-16.02-5.75-19.56,1.83-1.92,4.11-.89,9.41,2.43,12.49,1.96,1.82,4.54,2.86,7.15,3.45,2.81,.64,5.94,.76,8.41-.73,.61-.37,1.16-.83,1.64-1.35Z"/>
          <path class="cls-4" d="M1625.2,2585.89c1.81-6.47-9.89-9.26-14.1-7.42-5.62,2.45-3.96,6.73,.43,8.84,2.38,1.15,13.82,3.18,13.67-1.42Z"/>
          <path class="cls-4" d="M1572.87,2565.14c-2.6-4.22-2.44-5.36-2.04-9.96,.25-2.92-.9-6.42-3.63-8.07-2.59-1.56-6.89-1.32-8.13,1.89-1.3,3.36,2.77,6.63,2.61,10.23-.11,2.59-1.2,2.99-.17,5.56,1.01,2.53,3.19,4.48,5.58,5.63,2.29,1.1,6.48,2.18,8.34-.37,2.39-3.26-1.33-4.53-2.57-4.91Z"/>
        </g>
        <g>
          <path class="cls-30" d="M219.86,1907.07c-15.85-19.32-48.82-28.75-26.16-60.08,5.63-7.78,11.99-11.3,18.28-15.71,3.28-2.28,6.54-4.8,9.67-8.28,9.88-10.97,21.67-24.25,38.6-17.6,12.73,5,14.15,20.13,21.24,29.98,7.02,9.74,18.9,20.22,9.36,33.44,.02,1.68-.04,3.46-.2,5.33-1.4,17.45-9.87,42.1-18.18,48.69-21.75,17.26-38.98,.82-52.61-15.78Z"/>
          <path class="cls-5" d="M219.86,1907.07c-15.85-19.32-48.82-28.75-26.16-60.08,5.63-7.78,11.99-11.3,18.28-15.71,1.07,4.24,2.52,8.39,4.1,12.47,3.86,9.95,10.99,20.6,21.96,23.17,8.33,1.95,16.53-1.88,24.36-.28,6.74,1.37,10.05,8.1,17.56,8.47,3.44,.16,7.24,.04,10.69-.95-1.4,17.45-9.87,42.1-18.18,48.69-21.75,17.26-38.98,.82-52.61-15.78Z"/>
          <path class="cls-4" d="M273.68,1881.98c5.39-2.93,6.51-16.08,5.86-21.69-.52-4.46-2.93-19.18-10.14-12.74-3.32,2.96-1.62,6.7-1.71,10.51-.09,4.02-1.37,7.39-2.81,11.05-1.76,4.46-3.5,12.75,1.27,15.96,2.6,1.75,7.42,.86,7.54-3.09Z"/>
          <path class="cls-4" d="M251.57,1828.92c-2.01-3.21-10.37-5.54-13.44-5.48-3.02,.06-6.14,.97-8.29,3.1-2.15,2.13-3.07,5.62-1.68,8.3,.69,1.33,1.86,2.36,3.1,3.2,1.66,1.12,3.53,1.98,5.52,2.2,1.99,.21,4.1-.28,5.61-1.6,.8-.7,1.41-1.61,2.21-2.31,1.17-1.02,2.69-1.54,4.06-2.27,3.36-1.8,3.89-3.57,2.92-5.13Z"/>
          <path class="cls-4" d="M237.78,1877.08c2.03-1.12,3.59-3.14,4.51-5.31,1.28-3.01,1.53-6.48,.47-9.57-2.64-7.67-13.32-10.59-19.11-4.56-3.14,3.27-3.87,8.62-1.71,12.61,1.27,2.36,3.38,4.17,5.66,5.57,2.46,1.51,5.38,2.63,8.2,2.01,.7-.16,1.36-.41,1.98-.76Z"/>
          <path class="cls-4" d="M249.66,1910.9c3.79-5.54-6.39-11.95-10.97-11.56-6.11,.52-5.91,5.1-2.43,8.51,1.88,1.85,12.06,7.45,13.4,3.05Z"/>
          <path class="cls-4" d="M206.78,1874.43c-1.11-4.83-.59-5.85,1.27-10.09,1.18-2.69,1.22-6.37-.84-8.81-1.95-2.31-6.1-3.46-8.3-.83-2.31,2.76,.49,7.16-.81,10.53-.94,2.42-2.1,2.45-1.95,5.21,.14,2.72,1.58,5.27,3.47,7.13,1.82,1.78,5.43,4.15,8.02,2.33,3.31-2.32,.19-4.72-.85-5.47Z"/>
        </g>
        <g>
          <path class="cls-30" d="M489.92,1832.91c-7.76-9.45-23.89-14.07-12.8-29.4,2.76-3.81,5.87-5.53,8.95-7.69,1.6-1.11,3.2-2.35,4.73-4.05,4.83-5.37,10.61-11.87,18.89-8.61,6.23,2.45,6.93,9.85,10.4,14.67,3.44,4.77,9.25,9.89,4.58,16.37,.01,.82-.02,1.69-.1,2.61-.69,8.54-4.83,20.6-8.9,23.83-10.64,8.44-19.08,.4-25.75-7.72Z"/>
          <path class="cls-5" d="M489.92,1832.91c-7.76-9.45-23.89-14.07-12.8-29.4,2.76-3.81,5.87-5.53,8.95-7.69,.53,2.08,1.23,4.11,2.01,6.1,1.89,4.87,5.38,10.08,10.75,11.34,4.07,.95,8.09-.92,11.92-.14,3.3,.67,4.92,3.96,8.59,4.15,1.68,.08,3.54,.02,5.23-.47-.69,8.54-4.83,20.6-8.9,23.83-10.64,8.44-19.08,.4-25.75-7.72Z"/>
          <path class="cls-4" d="M516.26,1820.64c2.64-1.43,3.18-7.87,2.87-10.62-.25-2.18-1.43-9.39-4.96-6.23-1.62,1.45-.79,3.28-.83,5.14-.04,1.97-.67,3.62-1.38,5.41-.86,2.18-1.71,6.24,.62,7.81,1.27,.86,3.63,.42,3.69-1.51Z"/>
          <path class="cls-4" d="M505.44,1794.67c-.98-1.57-5.07-2.71-6.58-2.68-1.48,.03-3.01,.47-4.06,1.51-1.05,1.04-1.5,2.75-.82,4.06,.34,.65,.91,1.16,1.52,1.57,.81,.55,1.73,.97,2.7,1.07,.97,.1,2.01-.14,2.74-.78,.39-.34,.69-.79,1.08-1.13,.57-.5,1.31-.75,1.99-1.11,1.65-.88,1.9-1.75,1.43-2.51Z"/>
          <path class="cls-4" d="M498.69,1818.24c.99-.55,1.76-1.53,2.21-2.6,.62-1.47,.75-3.17,.23-4.68-1.29-3.76-6.52-5.18-9.35-2.23-1.54,1.6-1.89,4.22-.84,6.17,.62,1.15,1.65,2.04,2.77,2.72,1.2,.74,2.63,1.29,4.01,.98,.34-.08,.67-.2,.97-.37Z"/>
          <path class="cls-4" d="M504.51,1834.79c1.86-2.71-3.13-5.85-5.37-5.66-2.99,.25-2.89,2.5-1.19,4.16,.92,.91,5.9,3.65,6.56,1.49Z"/>
          <path class="cls-4" d="M483.52,1816.94c-.54-2.36-.29-2.87,.62-4.94,.58-1.31,.59-3.12-.41-4.31-.95-1.13-2.98-1.69-4.06-.4-1.13,1.35,.24,3.51-.4,5.15-.46,1.18-1.03,1.2-.95,2.55,.07,1.33,.77,2.58,1.7,3.49,.89,.87,2.66,2.03,3.92,1.14,1.62-1.14,.09-2.31-.42-2.68Z"/>
        </g>
      </g>
      <g>
        <path class="cls-7" d="M1696.42,2182.58c-1.8,0-3.26-1.46-3.26-3.26s1.46-3.26,3.26-3.26,3.26,1.46,3.26,3.26-1.46,3.26-3.26,3.26Z"/>
        <circle class="cls-7" cx="1633.03" cy="2030.42" r="7.64" transform="translate(-957.42 1749.42) rotate(-45)"/>
        <path class="cls-7" d="M1586.28,2077.59c-2.09,0-3.79-1.7-3.79-3.79s1.7-3.79,3.79-3.79,3.79,1.7,3.79,3.79-1.7,3.79-3.79,3.79Z"/>
        <circle class="cls-7" cx="1609.05" cy="2120.92" r="7.41" transform="translate(-824.82 3199.64) rotate(-76.72)"/>
        <path class="cls-7" d="M1713.39,1863.56c-2.96,0-5.35-2.4-5.35-5.35s2.4-5.36,5.35-5.36,5.35,2.4,5.35,5.36-2.4,5.35-5.35,5.35Z"/>
        <path class="cls-7" d="M1350.85,2624.68c-3.47,0-6.29-2.82-6.29-6.29s2.81-6.29,6.29-6.29,6.29,2.82,6.29,6.29-2.81,6.29-6.29,6.29Z"/>
        <circle class="cls-7" cx="1341.73" cy="2540.46" r="2.83"/>
        <circle class="cls-7" cx="1305.61" cy="2458.71" r="7.14"/>
        <path class="cls-7" d="M1231.8,2599.62c-3,0-5.43-2.43-5.43-5.43s2.43-5.43,5.43-5.43,5.43,2.43,5.43,5.43-2.43,5.43-5.43,5.43Z"/>
        <circle class="cls-7" cx="1453.83" cy="2532.6" r="9.99" transform="translate(-1345.04 3365.66) rotate(-76.72)"/>
        <path class="cls-7" d="M1590.18,2731.78c-2.16,0-3.91-1.75-3.91-3.91s1.75-3.91,3.91-3.91,3.91,1.75,3.91,3.91-1.75,3.91-3.91,3.91Z"/>
        <path class="cls-7" d="M1696.42,2716.87c-1.8,0-3.26-1.46-3.26-3.26s1.46-3.26,3.26-3.26,3.26,1.46,3.26,3.26-1.46,3.26-3.26,3.26Z"/>
        <path class="cls-7" d="M832.33,2284.76c-2.65,0-4.8-2.15-4.8-4.8s2.15-4.8,4.8-4.8,4.8,2.15,4.8,4.8-2.15,4.8-4.8,4.8Z"/>
        <path class="cls-7" d="M906.2,2364.99c-3.43,0-6.2-2.78-6.2-6.2s2.78-6.2,6.2-6.2,6.2,2.78,6.2,6.2-2.78,6.2-6.2,6.2Z"/>
        <circle class="cls-7" cx="704.63" cy="2149.46" r="11.56"/>
        <path class="cls-7" d="M698.85,2231.53c-3.19,0-5.78-2.59-5.78-5.78s2.59-5.78,5.78-5.78,5.78,2.59,5.78,5.78-2.59,5.78-5.78,5.78Z"/>
        <path class="cls-7" d="M489.86,2080.08c-3.81,0-6.91-3.09-6.91-6.91s3.09-6.91,6.91-6.91,6.91,3.09,6.91,6.91-3.09,6.91-6.91,6.91Z"/>
        <circle class="cls-7" cx="530.85" cy="2144.81" r="19.79"/>
        <circle class="cls-7" cx="222.8" cy="2317.42" r="9.27"/>
        <circle class="cls-7" cx="263.85" cy="2251.2" r="7.53" transform="translate(-1514.56 845.93) rotate(-45)"/>
        <circle class="cls-7" cx="260.94" cy="2613.52" r="10.44"/>
        <circle class="cls-7" cx="374.63" cy="2682.05" r="5.2"/>
        <path class="cls-7" d="M84.28,1985.88c-2.4,0-4.34-1.94-4.34-4.34s1.94-4.34,4.34-4.34,4.34,1.94,4.34,4.34-1.94,4.34-4.34,4.34Z"/>
        <circle class="cls-7" cx="133.63" cy="2018.49" r="5.2"/>
        <circle class="cls-7" cx="360.67" cy="1928.91" r="8.76" transform="translate(-1258.31 820) rotate(-45)"/>
        <path class="cls-7" d="M328.06,1778.08c-.9,0-1.63-.73-1.63-1.63s.73-1.63,1.63-1.63,1.63,.73,1.63,1.63-.73,1.63-1.63,1.63Z"/>
        <path class="cls-7" d="M334.16,1803.62c-.94,0-1.7-.76-1.7-1.7s.76-1.7,1.7-1.7,1.7,.76,1.7,1.7-.76,1.7-1.7,1.7Z"/>
        <path class="cls-7" d="M426.09,1729.08c-3.47,0-6.28-2.81-6.28-6.28s2.81-6.28,6.28-6.28,6.28,2.81,6.28,6.28-2.81,6.28-6.28,6.28Z"/>
        <path class="cls-7" d="M153.87,1617.76c-1.8,0-3.26-1.46-3.26-3.26s1.46-3.26,3.26-3.26,3.26,1.46,3.26,3.26-1.46,3.26-3.26,3.26Z"/>
        <path class="cls-7" d="M152.24,1675.95c-.9,0-1.63-.73-1.63-1.63s.73-1.63,1.63-1.63,1.63,.73,1.63,1.63-.73,1.63-1.63,1.63Z"/>
        <circle class="cls-7" cx="378.89" cy="1455.72" r="9.46" transform="translate(-1124.94 1490.01) rotate(-76.72)"/>
        <circle class="cls-7" cx="586.63" cy="1517.02" r="7.69"/>
        <circle class="cls-7" cx="722.64" cy="1364.5" r="13.19"/>
        <circle class="cls-7" cx="920.74" cy="1347.51" r="3.81"/>
        <circle class="cls-7" cx="940.53" cy="1398.14" r="2.05"/>
        <circle class="cls-15" cx="1172.07" cy="1428.85" r="17.4" transform="translate(-667.06 1247.28) rotate(-45)"/>
        <circle class="cls-15" cx="813.95" cy="1529.45" r="4.74"/>
        <circle class="cls-15" cx="515.75" cy="1089.09" r="10.66"/>
        <circle class="cls-15" cx="340.8" cy="2103.57" r="11.11"/>
        <circle class="cls-15" cx="230.56" cy="2116.22" r="7.77"/>
        <circle class="cls-15" cx="219.94" cy="2157.03" r="7.57" transform="translate(-808.72 248.36) rotate(-22.5)"/>
        <circle class="cls-15" cx="116.23" cy="2571.35" r="17.4"/>
        <circle class="cls-9" cx="728.58" cy="2658.15" r="18.02" transform="translate(-1666.2 1293.74) rotate(-45)"/>
        <path class="cls-9" d="M1375.06,2410.4c-2.31,0-4.19-1.88-4.19-4.19s1.88-4.19,4.19-4.19,4.19,1.88,4.19,4.19-1.88,4.19-4.19,4.19Z"/>
        <path class="cls-9" d="M1354,2387.79c-1.74,0-3.14-1.41-3.14-3.14s1.41-3.14,3.14-3.14,3.14,1.41,3.14,3.14-1.41,3.14-3.14,3.14Z"/>
        <path class="cls-9" d="M1341.73,2411.88c-1.56,0-2.83-1.27-2.83-2.83s1.27-2.83,2.83-2.83,2.83,1.27,2.83,2.83-1.27,2.83-2.83,2.83Z"/>
        <path class="cls-9" d="M1636.85,1916.36c-2.11,0-3.82-1.71-3.82-3.82s1.71-3.82,3.82-3.82,3.82,1.71,3.82,3.82-1.71,3.82-3.82,3.82Z"/>
        <path class="cls-9" d="M1614.92,1915.61c-.85,0-1.54-.69-1.54-1.54s.69-1.54,1.54-1.54,1.54,.69,1.54,1.54-.69,1.54-1.54,1.54Z"/>
        <circle class="cls-25" cx="1658.08" cy="1619.66" r="13.17"/>
        <path class="cls-25" d="M1597.86,1813.16c-2.09,0-3.78-1.69-3.78-3.78s1.69-3.78,3.78-3.78,3.78,1.69,3.78,3.78-1.69,3.78-3.78,3.78Z"/>
        <path class="cls-25" d="M1555.04,1783.45c-2.09,0-3.78-1.69-3.78-3.78s1.69-3.78,3.78-3.78,3.78,1.69,3.78,3.78-1.69,3.78-3.78,3.78Z"/>
        <path class="cls-25" d="M1245.68,1151.16c-1.97,0-3.57-1.6-3.57-3.57s1.6-3.57,3.57-3.57,3.57,1.6,3.57,3.57-1.6,3.57-3.57,3.57Z"/>
        <path class="cls-25" d="M1201.08,1144.02c-3.39,0-6.14-2.75-6.14-6.14s2.75-6.14,6.14-6.14,6.14,2.75,6.14,6.14-2.75,6.14-6.14,6.14Z"/>
        <path class="cls-25" d="M1345.5,847.35c-3.39,0-6.13-2.74-6.13-6.13s2.74-6.13,6.13-6.13,6.13,2.74,6.13,6.13-2.74,6.13-6.13,6.13Z"/>
        <circle class="cls-7" cx="1405.45" cy="671.49" r="10.54" transform="translate(-126.74 951.79) rotate(-35.9)"/>
        <path class="cls-7" d="M1576.39,610.34c-1.41,0-2.56-1.14-2.56-2.56s1.14-2.56,2.56-2.56,2.56,1.14,2.56,2.56-1.14,2.56-2.56,2.56Z"/>
        <path class="cls-7" d="M1552.81,580.47c-1.23,0-2.23-1-2.23-2.23s1-2.23,2.23-2.23,2.23,1,2.23,2.23-1,2.23-2.23,2.23Z"/>
        <path class="cls-7" d="M1081.74,912.45c-2,0-3.62-1.62-3.62-3.62s1.62-3.62,3.62-3.62,3.62,1.62,3.62,3.62-1.62,3.62-3.62,3.62Z"/>
        <path class="cls-7" d="M1036.72,835.09c-1.75,0-3.16-1.42-3.16-3.16s1.42-3.16,3.16-3.16,3.16,1.42,3.16,3.16-1.42,3.16-3.16,3.16Z"/>
        <path class="cls-7" d="M851.22,726.61c-1.28,0-2.33-1.04-2.33-2.33s1.04-2.33,2.33-2.33,2.33,1.04,2.33,2.33-1.04,2.33-2.33,2.33Z"/>
        <circle class="cls-7" cx="807.36" cy="717.88" r="4.07"/>
        <path class="cls-7" d="M686.01,530.62c-1.8,0-3.26-1.46-3.26-3.26s1.46-3.26,3.26-3.26,3.26,1.46,3.26,3.26-1.46,3.26-3.26,3.26Z"/>
        <path class="cls-7" d="M651.73,530.62c-1.8,0-3.26-1.46-3.26-3.26s1.46-3.26,3.26-3.26,3.26,1.46,3.26,3.26-1.46,3.26-3.26,3.26Z"/>
        <path class="cls-7" d="M1137.95,361.49c-3.07,0-5.56-2.49-5.56-5.56s2.49-5.56,5.56-5.56,5.56,2.49,5.56,5.56-2.49,5.56-5.56,5.56Z"/>
        <path class="cls-7" d="M1287.27,226.89c-3.28,0-5.94-2.66-5.94-5.94s2.66-5.94,5.94-5.94,5.94,2.66,5.94,5.94-2.66,5.94-5.94,5.94Z"/>
        <circle class="cls-7" cx="1366.26" cy="251.17" r="9.14"/>
        <path class="cls-7" d="M977.02,17.05c-2.31,0-4.19-1.88-4.19-4.19s1.88-4.19,4.19-4.19,4.19,1.88,4.19,4.19-1.88,4.19-4.19,4.19Z"/>
        <path class="cls-7" d="M785.1,55.09c-1.56,0-2.83-1.27-2.83-2.83s1.27-2.83,2.83-2.83,2.83,1.27,2.83,2.83-1.27,2.83-2.83,2.83Z"/>
        <circle class="cls-7" cx="775.92" cy="98.53" r="12.01"/>
        <path class="cls-7" d="M684.01,188.91c-2.9,0-5.26-2.35-5.26-5.26s2.35-5.26,5.26-5.26,5.26,2.35,5.26,5.26-2.35,5.26-5.26,5.26Z"/>
        <circle class="cls-7" cx="639.69" cy="156.33" r="8.79"/>
        <path class="cls-7" d="M624.71,2003.6c-1.72,0-3.12-1.4-3.12-3.12s1.4-3.12,3.12-3.12,3.12,1.4,3.12,3.12-1.4,3.12-3.12,3.12Z"/>
        <path class="cls-7" d="M584.69,1986.28c-.98,0-1.77-.79-1.77-1.77s.79-1.77,1.77-1.77,1.77,.79,1.77,1.77-.79,1.77-1.77,1.77Z"/>
        <path class="cls-7" d="M567.57,1982.74c-.58,0-1.05-.47-1.05-1.05s.47-1.05,1.05-1.05,1.05,.47,1.05,1.05-.47,1.05-1.05,1.05Z"/>
        <circle class="cls-7" cx="568.09" cy="1993.09" r=".53"/>
        <path class="cls-7" d="M539.19,1972.46c-1.13,0-2.05-.92-2.05-2.05s.92-2.05,2.05-2.05,2.05,.92,2.05,2.05-.92,2.05-2.05,2.05Z"/>
        <circle class="cls-7" cx="531.08" cy="2060.54" r="1.49"/>
        <path class="cls-7" d="M552.4,2062.57c-.97,0-1.76-.79-1.76-1.76s.79-1.76,1.76-1.76,1.76,.79,1.76,1.76-.79,1.76-1.76,1.76Z"/>
        <circle class="cls-7" cx="473.77" cy="2019.01" r="1.67"/>
        <path class="cls-7" d="M503.18,2019.32c-.96,0-1.73-.77-1.73-1.73s.77-1.73,1.73-1.73,1.73,.77,1.73,1.73-.77,1.73-1.73,1.73Z"/>
        <circle class="cls-7" cx="434.29" cy="2067.66" r="1.4"/>
        <path class="cls-7" d="M444.93,2080.08c-.78,0-1.42-.64-1.42-1.42s.64-1.42,1.42-1.42,1.42,.64,1.42,1.42-.64,1.42-1.42,1.42Z"/>
        <circle class="cls-7" cx="447.42" cy="2057.5" r="1.07"/>
        <circle class="cls-7" cx="462.06" cy="2051.32" r=".66"/>
        <path class="cls-7" d="M467.2,2060.54c-.55,0-.99-.44-.99-.99s.44-.99,.99-.99,.99,.44,.99,.99-.44,.99-.99,.99Z"/>
        <path class="cls-7" d="M425.87,2012.23c-.93,0-1.68-.75-1.68-1.68s.75-1.68,1.68-1.68,1.68,.75,1.68,1.68-.75,1.68-1.68,1.68Z"/>
        <circle class="cls-7" cx="432.35" cy="2027.96" r="3.34"/>
        <path class="cls-7" d="M456,2029.04c-1.22,0-2.21-.99-2.21-2.21s.99-2.21,2.21-2.21,2.21,.99,2.21,2.21-.99,2.21-2.21,2.21Z"/>
        <path class="cls-7" d="M399.34,2031.3c-.62,0-1.13-.51-1.13-1.13s.51-1.13,1.13-1.13,1.13,.51,1.13,1.13-.51,1.13-1.13,1.13Z"/>
        <path class="cls-7" d="M365.1,1982.74c-.58,0-1.05-.47-1.05-1.05s.47-1.05,1.05-1.05,1.05,.47,1.05,1.05-.47,1.05-1.05,1.05Z"/>
        <path class="cls-7" d="M286.23,1975.7c-.62,0-1.11-.5-1.11-1.11s.5-1.11,1.11-1.11,1.11,.5,1.11,1.11-.5,1.11-1.11,1.11Z"/>
        <circle class="cls-7" cx="275.08" cy="1967.09" r="1.58"/>
        <circle class="cls-7" cx="260.44" cy="1983.26" r="2.62"/>
        <circle class="cls-7" cx="135.36" cy="1884.95" r="1.72"/>
        <path class="cls-7" d="M144.21,1901.02c-.47,0-.85-.38-.85-.85s.38-.85,.85-.85,.85,.38,.85,.85-.38,.85-.85,.85Z"/>
        <circle class="cls-7" cx="168.31" cy="1894.36" r="1.02"/>
        <path class="cls-7" d="M155.88,1866.21c-1.08,0-1.96-.88-1.96-1.96s.88-1.96,1.96-1.96,1.96,.88,1.96,1.96-.88,1.96-1.96,1.96Z"/>
      </g>
    </g>
  </g>
</svg>